<?xml version="1.0" encoding="utf-8"?>
<!-- Generator: Adobe Illustrator 15.1.0, SVG Export Plug-In . SVG Version: 6.00 Build 0)  -->
<!DOCTYPE svg PUBLIC "-//W3C//DTD SVG 1.1//EN" "http://www.w3.org/Graphics/SVG/1.1/DTD/svg11.dtd">
<svg version="1.1" id="Camada_1" xmlns="http://www.w3.org/2000/svg" xmlns:xlink="http://www.w3.org/1999/xlink" x="0px" y="0px"
	 width="600px" height="600px" viewBox="0 0 600 600" enable-background="new 0 0 600 600" xml:space="preserve">
<g>
	<path fill="#003362" d="M294.113,579.464c-70.874-30.239-129.069-75.124-172.97-133.407
		C86.119,399.558,60.16,344.57,43.986,282.623C16.583,177.66,26.665,89.896,27.107,86.211l1.95-16.236l16.008,3.342
		c22.601,4.718,45.522,7.11,68.127,7.109c106.841-0.003,176.989-52.8,177.685-53.333l9.124-6.99l9.123,6.992
		c0.154,0.117,17.969,13.545,48.755,26.768c28.218,12.12,73.49,26.566,128.927,26.564c22.614,0,45.536-2.393,68.129-7.109
		l16.008-3.342l1.95,16.236c0.443,3.685,10.524,91.449-16.879,196.412c-16.174,61.948-42.133,116.935-77.157,163.434
		c-43.9,58.283-102.097,103.168-172.97,133.407L300,581.976L294.113,579.464z"/>
	<path fill="#003362" d="M300,39c0,0,73.631,56.426,186.807,56.426c22.281,0,46.108-2.189,71.193-7.426c0,0,42,349.667-258,477.667
		C0,437.667,42,88,42,88c25.095,5.239,48.905,7.426,71.194,7.426C226.355,95.426,300,39,300,39 M299.819,0.839l-18.035,14.323
		c-1.138,0.843-18.021,13.188-46.532,25.319c-26.744,11.379-69.629,24.944-122.059,24.944c-21.581,0-43.472-2.285-65.063-6.793
		l-32.016-6.684l-3.9,32.473c-0.457,3.8-10.855,94.305,17.259,201.989c16.67,63.851,43.481,120.599,79.689,168.669
		c45.5,60.406,105.746,106.896,179.064,138.18L300,598.283l11.773-5.022c73.318-31.283,133.564-77.773,179.064-138.18
		c36.208-48.07,63.02-104.818,79.689-168.669c28.114-107.685,17.715-198.189,17.259-201.989l-3.9-32.473l-32.017,6.684
		c-21.591,4.508-43.481,6.793-65.063,6.793c-52.436,0-95.32-13.564-122.063-24.944c-28.631-12.183-45.533-24.581-46.541-25.329
		L299.819,0.839L299.819,0.839z"/>
</g>
<g>
	<path fill="#003362" d="M297.057,572.565c-69.651-29.718-126.821-73.8-169.922-131.021
		c-34.433-45.714-59.966-99.819-75.891-160.816C24.195,177.126,34.118,90.732,34.554,87.105l0.975-8.118l8.004,1.671
		c23.104,4.823,46.542,7.269,69.661,7.268c56.94-0.001,103.415-14.895,132.375-27.388c31.486-13.583,49.695-27.358,49.875-27.496
		l4.56-3.479l4.559,3.485c0.175,0.133,18.38,13.911,49.864,27.494c28.959,12.494,75.433,27.387,132.38,27.384
		c23.127,0,46.564-2.446,69.661-7.268l8.004-1.671l0.975,8.118c0.436,3.627,10.359,90.021-16.689,193.623
		c-15.925,60.997-41.458,115.102-75.891,160.816c-43.102,57.222-100.271,101.304-169.923,131.021L300,573.821L297.057,572.565z"/>
	<path fill="#FFFFFF" d="M300,39c0,0,73.631,56.426,186.807,56.426c22.281,0,46.108-2.189,71.193-7.426c0,0,42,349.667-258,477.667
		C0,437.667,42,88,42,88c25.095,5.239,48.905,7.426,71.193,7.426C226.355,95.426,300,39,300,39 M300.001,20.103l-9.102,6.974l0,0
		c-0.176,0.134-17.994,13.562-48.782,26.784c-28.22,12.12-73.494,26.566-128.924,26.566c-22.609,0-45.53-2.392-68.128-7.11
		l-16.008-3.342l-1.95,16.236c-0.112,0.936-2.743,23.314-1.979,58.748c0.702,32.538,4.543,82.833,18.858,137.664
		c16.173,61.948,42.133,116.935,77.157,163.434c43.901,58.283,102.096,103.168,172.97,133.407l5.887,2.512l5.887-2.512
		c70.873-30.239,129.069-75.124,172.97-133.407c35.024-46.499,60.983-101.486,77.157-163.434
		c14.315-54.831,18.156-105.126,18.857-137.664c0.765-35.434-1.866-57.813-1.979-58.748l-1.95-16.236l-16.008,3.342
		c-22.598,4.718-45.519,7.11-68.128,7.11c-106.853,0-176.986-52.799-177.683-53.332L300.001,20.103L300.001,20.103z"/>
</g>
<path fill="#FFFFFF" d="M564.946,82.229c-47.993,10.019-91.44,9.163-128.638,3.168L72.817,341.245
	C95.146,396.347,129.578,452,182.333,498.955l375.162-264.063C572.928,148.69,564.946,82.229,564.946,82.229z"/>
<g>
	<path fill="#F80025" d="M225.138,379.57c-1.389,7.872-3.345,14.296-5.806,19.082c-2.964,5.627-7.359,10.511-13.061,14.518
		c-6.037,4.243-12.575,6.759-19.432,7.475c-14.317,1.507-26.134-4.235-35.171-17.094c-6.292-8.955-8.57-18.72-6.769-29.022
		c1.802-10.307,7.24-18.712,16.165-24.983c10.581-7.438,23.447-9.654,38.289-6.607l1.479,0.303l4.829-24.282l-1.379-0.351
		c-6.218-1.58-12.373-2.382-18.295-2.382c-13.736,0-26.824,4.304-38.901,12.791c-9.572,6.727-16.966,15.446-21.974,25.917
		c-10.452,21.809-8.568,43.088,5.6,63.246c10.782,15.344,24.669,24.543,41.275,27.344c3.415,0.575,6.852,0.867,10.217,0.867
		c12.983,0,25.739-4.338,37.913-12.893c8.836-6.21,15.654-13.376,20.267-21.308c4.108-7.154,7.272-16.519,9.403-27.832l0.275-1.463
		l-24.657-4.83L225.138,379.57z"/>
	<path fill="#F80025" d="M265.792,373.423c-3.022-0.703-6.105,0.009-9.081,2.101c-2.993,2.103-4.684,4.756-5.026,7.885
		c-0.334,3.055,0.399,5.888,2.18,8.422c1.763,2.509,4.183,4.147,7.192,4.87c0.798,0.192,1.608,0.29,2.407,0.29
		c2.266,0,4.523-0.778,6.708-2.313c2.962-2.083,4.65-4.721,5.019-7.839c0.361-3.054-0.37-5.903-2.172-8.469
		C271.198,375.78,268.768,374.116,265.792,373.423z"/>
	<polygon fill="#F80025" points="278.006,240.654 320.808,301.559 238.305,268.555 218.747,282.299 288.615,381.717 
		309.525,367.021 266.859,306.31 349.162,339.167 368.785,325.375 298.917,225.958 	"/>
	<path fill="#F80025" d="M376.06,295.933c-3.019-0.703-6.104,0.008-9.081,2.1c-2.994,2.104-4.685,4.757-5.026,7.884
		c-0.335,3.055,0.397,5.889,2.179,8.423c1.763,2.509,4.183,4.147,7.193,4.87c0.798,0.192,1.608,0.29,2.406,0.29
		c2.267,0,4.523-0.778,6.709-2.313c2.962-2.083,4.65-4.72,5.018-7.838c0.36-3.055-0.37-5.903-2.172-8.469
		C381.465,298.29,379.034,296.625,376.06,295.933z"/>
	<path fill="#F80025" d="M394.238,227.324l11.834,16.839c-4.711-0.189-9.032,1.078-12.885,3.785
		c-5.561,3.907-8.647,9.287-9.176,15.99c-0.492,6.205,1.249,12.184,5.176,17.771c3.838,5.461,8.938,9.038,15.161,10.63
		c1.973,0.499,3.927,0.751,5.809,0.751c4.372,0,8.52-1.356,12.326-4.032c3.637-2.556,6.222-6.103,7.71-10.573l1.758,2.5l11.724-8.24
		l-37.711-53.662L394.238,227.324z M421.011,269.509c-0.342,3.057-1.833,5.473-4.558,7.388c-2.634,1.851-5.362,2.383-8.395,1.625
		c-2.929-0.724-5.289-2.41-7.217-5.154c-1.943-2.763-2.733-5.534-2.416-8.467c0.335-3.017,1.789-5.391,4.445-7.258
		c2.043-1.436,4.06-2.133,6.166-2.133c0.712,0,1.442,0.083,2.171,0.248c2.938,0.664,5.323,2.349,7.292,5.15
		C420.493,263.743,421.313,266.561,421.011,269.509z"/>
	<path fill="#F80025" d="M465.523,238.057c-0.731,3.787-2.621,6.706-5.779,8.925c-2.511,1.764-5.09,2.581-7.689,2.438
		c-2.053-0.115-3.911-0.833-5.64-2.188l29.409-20.668l-2.03-3.011c-4.316-6.395-9.974-10.285-16.819-11.565
		c-6.624-1.218-13.119,0.352-19.241,4.654c-5.892,4.14-9.394,9.615-10.406,16.274c-1.011,6.634,0.575,12.985,4.716,18.878
		c4.202,5.979,9.681,9.536,16.284,10.572c1.291,0.203,2.592,0.306,3.863,0.306c5.202,0,10.274-1.711,15.077-5.087
		c7.701-5.412,11.606-12.498,11.606-21.06v-1.785l-13.154,2.3L465.523,238.057z M456.586,225.46l-16.17,11.365
		c-0.132-1.626-0.024-2.966,0.323-4.003c0.836-2.508,2.371-4.522,4.695-6.155c2.048-1.438,4.215-2.161,6.625-2.207l0.208-0.002
		C453.831,224.458,455.259,224.788,456.586,225.46z"/>
	<polygon fill="#F80025" points="514.365,157.879 500.227,137.759 470.432,158.697 459.695,143.42 489.489,122.482 475.165,102.098 
		424.591,137.639 494.458,237.058 515.237,222.455 484.571,178.817 	"/>
	<path fill="#F80025" d="M546.051,186.494c-1.82-2.59-4.251-4.254-7.226-4.947c-3.018-0.702-6.104,0.007-9.081,2.101
		c-2.992,2.103-4.684,4.755-5.026,7.884c-0.335,3.054,0.397,5.888,2.179,8.423c1.763,2.508,4.183,4.146,7.193,4.871
		c0.798,0.192,1.607,0.289,2.405,0.289c2.268,0,4.524-0.778,6.709-2.313c2.963-2.082,4.651-4.719,5.019-7.837
		C548.584,191.908,547.853,189.059,546.051,186.494z"/>
</g>
</svg>
