<?xml version="1.0" encoding="utf-8"?>
<!-- Generator: Adobe Illustrator 14.0.0, SVG Export Plug-In . SVG Version: 6.00 Build 43363)  -->
<!DOCTYPE svg PUBLIC "-//W3C//DTD SVG 1.1//EN" "http://www.w3.org/Graphics/SVG/1.1/DTD/svg11.dtd">
<svg version="1.1" id="Layer_1" xmlns="http://www.w3.org/2000/svg" xmlns:xlink="http://www.w3.org/1999/xlink" x="0px" y="0px"
	 width="188px" height="190px" viewBox="0 0 188 190" enable-background="new 0 0 188 190" xml:space="preserve">
<g>
	<path fill-rule="evenodd" clip-rule="evenodd" fill="#FFFFFF" d="M93.92,7.004c48.432,0,87.79,39.357,87.79,87.874
		c0,48.518-39.357,87.874-87.79,87.874c-48.517,0-87.874-39.356-87.874-87.874C6.046,46.361,45.403,7.004,93.92,7.004L93.92,7.004z"
		/>
	<path fill-rule="evenodd" clip-rule="evenodd" fill="#0072B4" d="M93.92,9.803c46.906,0,84.991,38.084,84.991,85.075
		c0,46.99-38.085,85.075-84.991,85.075c-46.99,0-85.075-38.085-85.075-85.075C8.846,47.887,46.93,9.803,93.92,9.803L93.92,9.803z"/>
	<path fill-rule="evenodd" clip-rule="evenodd" fill="#FFFFFF" d="M93.92,12.941c45.209,0,81.937,36.728,81.937,81.937
		s-36.728,81.937-81.937,81.937c-45.294,0-81.937-36.728-81.937-81.937S48.626,12.941,93.92,12.941L93.92,12.941z"/>
	<path fill-rule="evenodd" clip-rule="evenodd" fill="#0072B4" d="M93.92,30.33c35.625,0,64.548,28.924,64.548,64.548
		c0,35.625-28.924,64.548-64.548,64.548c-35.709,0-64.633-28.923-64.633-64.548C29.287,59.253,58.211,30.33,93.92,30.33L93.92,30.33
		z"/>
	<path fill-rule="evenodd" clip-rule="evenodd" fill="#FFFFFF" d="M62.028,55.776l0.085-0.424l0.678,0.679l-0.339,1.951
		l-0.594-1.272l0.339-0.169l-0.509-0.594L62.028,55.776L62.028,55.776z M62.028,55.776l0.085-0.424l0.678,0.679l-0.339,1.951
		l-0.594-1.272l0.339-0.169l-0.509-0.594L62.028,55.776L62.028,55.776z M84.505,45.088l-0.169-0.17l-0.933,0.424l0.933,0.424
		l0.594-0.169L84.505,45.088L84.505,45.088z M79.84,41.441l-1.866,0.848l-0.084,0.594l3.393-0.678l0.085-0.424l-0.594-0.085v-0.339
		L79.84,41.441L79.84,41.441z M78.737,44.41l2.63-2.121l0.678,1.188l1.357-0.594l0.084,1.697l-0.848,0.678l-1.272-0.594l-2.63,0.254
		V44.41L78.737,44.41z M83.657,42.883l0.254-0.339h-0.594L83.657,42.883L83.657,42.883z M84.505,43.646l-0.254-0.594l0.424,0.169
		l0.255-0.509h1.103l-0.679,0.509l0.424,0.085l-0.254,0.509l-0.849,0.254L84.505,43.646L84.505,43.646z M86.795,41.611l-0.509,0.424
		l-0.933-0.339l1.103-0.509L86.795,41.611L86.795,41.611z M88.068,40.763h-0.424l0.17-0.509l0.424,0.254L88.068,40.763
		L88.068,40.763z M87.39,40.338l-0.425,0.424l-0.593-0.424l0.339-0.424L87.39,40.338L87.39,40.338z M84.336,41.017l0.594,0.424
		l-0.764,0.424h-1.781l0.933-1.103l0.594,0.678L84.336,41.017L84.336,41.017z M82.809,40.423l0.933-0.085l-0.424,0.339l-1.696,0.085
		L82.809,40.423L82.809,40.423z M89.001,39.66l0.594-0.339l0.764,0.933l-1.612,0.509l-0.17-0.679L89.001,39.66L89.001,39.66z
		 M87.729,41.187l-0.509,0.085l0.679,0.254l-0.17,0.933l2.63,0.254l0.763-0.424l-0.679-0.339l-1.781,0.169l-0.424-0.424l0.594-0.084
		L87.729,41.187L87.729,41.187z M87.304,41.865v0.509l-0.593-0.169L87.304,41.865L87.304,41.865z M86.711,42.628l1.272,0.254
		l-2.036,0.849L86.711,42.628L86.711,42.628z M91.885,46.275l0.424,0.509l-0.764,0.169L91.885,46.275L91.885,46.275z M90.697,39.914
		l-0.848-0.763l4.156-0.169l-3.223,2.884l-1.781-0.339l1.696-1.103l-0.085-0.509H90.697L90.697,39.914z M91.206,43.137l0.764,0.424
		l-1.103,0.085l-0.255-0.509H91.206L91.206,43.137z M99.519,44.749l1.018,0.424h-1.018V44.749L99.519,44.749z M89.934,100.984
		l0.17,0.679l-0.763,0.764l-0.424-0.764l0.339-0.424l-1.272-0.679l-1.272,0.849l0.339,0.679l-0.424,0.339l-1.272-1.018l-1.272-0.255
		l-0.085-0.084l-1.781-1.781l-0.17,0.424l-0.593-0.424l-0.085-1.104l-0.085-0.084L79.84,95.98l-0.339-0.339l-0.933,0.169
		l-1.357-0.678h-0.085l-1.188-0.34l-0.763-0.678L75.09,94.03l-1.018-1.188l-1.442-0.594l-0.084,0.084l-1.018,0.424l-1.357-0.509
		l-4.75-2.969l-1.188-1.357l-0.424-1.103l0.509-0.848l-0.17-1.357l-1.527-3.138l-0.678-0.509l0.339-0.678L60.84,77.49l-0.169-2.545
		l-0.933-1.102v0.169l-0.339,2.121l1.103,3.393l0.085,2.545l0.764,1.018l-0.679,0.509l-1.188-2.121l0.339-1.018l-0.424-1.357
		l-0.339,0.084l-0.763-1.103h0.594l0.339-0.679l-0.763-1.527v-2.969l0,0l-0.339-1.611l-0.934-0.849v-1.866l0.17-1.357l0.594-0.255
		l-0.594-0.084l0.339-2.29l0.848-1.272l0.085-0.085l2.375-3.563h0.424l-0.339-0.254l0.764-1.526l0.763,0.254l-0.339,0.594
		l0.934-1.272v-1.357l-0.764-0.934l0.678-1.018l-0.254-0.17l0.678-1.611l0.594-0.424l-0.424,0.084l0.933-1.018l-0.763,0.255
		l1.866-2.884l-1.188,0.509l0.594-0.933l-0.848-1.018l0.593-1.018l-2.459,0.424l2.969-1.442L61.35,46.7l-2.799,0.678l-0.424-0.339
		h0.084l3.647-1.272l-0.764,0.085l2.121-1.611l-1.103,0.254l1.612-1.272l3.138-0.763h-0.509l1.357-1.272h0.848l-0.594,0.679
		l1.103-0.679l1.697-1.018h2.629l-0.085,2.036l0.169,1.103l2.884-0.424l2.121,2.036l-0.764,0.17l1.781,0.254v0.933l1.696-1.272
		l0.764,0.933l1.526-0.254l1.018,0.339l0.848-0.255l-0.509-0.933l1.188-1.018l0.509,2.29l0.679-0.594l0.17,1.272l1.357-0.848
		l-0.085-0.679l0.933,0.085l0.424,0.594l-0.509,0.169l0.254,0.848l-2.036,0.594l-1.272,1.272l-3.732,1.696l-0.933,1.696l0.848,0.339
		l-0.255,1.357l0.933-0.254l4.665,1.951l-0.169,1.781l0.509,1.696l1.527-0.169l0.17-1.018l-0.424-1.781l2.12-1.273l-1.356-2.035
		l0.933-0.509l-0.509-1.951l2.12-0.169l1.188,0.933l1.103,0.17l-0.51,1.866l2.545-0.085l0.085-1.018l0.424-0.424l1.188,1.611
		l1.103,0.763l-0.679,0.339l3.563,1.442l-1.95,0.763l0.509,0.339l1.611-0.848l0.933,0.424l0.51,1.188l-1.442,0.848l-0.764,0.933
		l-4.155,0.254l-2.121,1.866l-0.764,1.188l1.696-1.612l2.29-0.593l0.51,0.509l-1.527,0.509l1.272,0.169l-0.17,0.679l1.104,0.933
		l2.12,0.424l-2.12,0.764l-0.849,1.103l-0.594-0.933l1.951-0.933l-2.799,0.339l0.084,0.509l-2.205,0.933l-0.509,1.272l0.849,0.594
		l-3.309,1.018l0.169,0.424l-0.763,1.188l-0.424-0.594l0.254,1.018l-0.594,1.273l-0.084-2.291l-0.424,0.339l0.509,3.054
		l-0.678,0.084l0.763,0.339l-0.594,0.848l-4.156,2.545l-0.594,1.526l1.103,3.732l-0.255,1.611l-0.763,0.255l-0.509-0.849
		l-0.848-2.036v-1.357l-0.933-0.933l-1.188,0.339l-0.848-0.848l-1.527,0.169l-2.036-0.254l0.084,1.018l-0.678,0.169l-0.933-0.679
		l-2.46-0.254l-0.424,0.933l-1.188,0.085l-0.848,0.848l-0.17,1.951l-0.763,1.187l-0.339,2.46l1.018,3.308l1.018,0.678l0,0
		l0.339,0.509l2.036-0.424l0.763,0.339l0.764-0.764l0.679-1.951l2.121-0.339l1.187,0.509l-0.933,1.527l-0.254,1.611l-0.085-0.763
		l-0.339,0.424v0.085l-0.085,1.527l-0.678,0.933l0.169,0.084l0.339,0.169h0.084H82.3l1.696,1.018l-0.085,0.085l-0.424,4.156
		l0.085,0.085l1.018,1.356l0,0l0.339,0.594l1.103,0.255l2.036-0.764L89.934,100.984L89.934,100.984z M90.528,101.663l-0.085-0.679
		l1.188-0.933l0.084-1.018l0.594-0.509l0.509,0.169l0.339-0.424l0.933-0.085l1.696-1.188l0.425,0.255l-0.17,0.339l-0.17,1.188
		l-0.424,0.679l0.509,1.103l0.509-0.339l-0.424-1.527l1.442-1.526l0.424,0.764l1.611,1.018l2.969,0.255l1.018-0.594l2.036-0.085
		l-0.934,0.339l2.036,1.018v0.849l1.272,0.085l2.884,2.375l2.969,0.085l1.357,0.254l1.018,0.934l1.611,2.29l-1.356,2.29
		l-0.085,1.611l2.035-0.424l0.085,0.594l1.866-2.121l2.12,0.595l0.425,1.188l0.763-0.51h3.309l3.393,1.612l0.339,2.375l-4.919,9.924
		l-3.479,5.089l-6.106,3.393l-0.424,1.696l-5.005,4.496l-1.356,0.933l-2.885-0.339l-0.084,0.424l0.848,0.424v1.104l-1.188,0.933
		l-3.393,0.424l-0.509,1.357h-1.866l-0.17,0.764l0.34,0.509l-1.104,1.103l-1.526,0.594l1.103,0.679l-2.29,1.188l-0.594,0.763
		l0.594,0.255l-2.12,0.679l0.254-0.424l-2.12-1.103l0.509-0.255l-1.188-1.272l0.339-0.509l1.611-0.255l-0.254-0.594l0.763-1.441
		l-1.188-0.085l0.424-1.188l-0.169-1.357l1.697-2.375l0.339-3.478l0.085-0.254l0.679-1.357l0.763-4.411l-0.254-2.799l-0.34-0.17
		l-5.428-3.308l-0.085-0.933l-1.357-1.697l-1.272-2.969l-2.29-2.459l0.254-0.255l-0.509-1.188l1.018-0.933l0.169-0.17l0.425-0.679
		l-0.17-0.424l-0.424,0.509l-0.509-0.339v-1.357l0.764-1.103v-0.594l1.272-0.594l0.085-0.255l0.254-0.933l0.933-0.255l0.764-1.188
		h-0.594l0.169-2.629l-0.593-0.849l0.763-0.764l-0.17-0.679L90.528,101.663L90.528,101.663z M87.729,47.803l2.291,1.441l-0.509,0.17
		l-0.933-0.424l-1.018,0.593l-0.085-0.509l-0.679,0.169L87.729,47.803L87.729,47.803z M87.729,47.803l2.291,1.441l-0.509,0.17
		l-0.933-0.424l-1.018,0.593l-0.085-0.509l-0.679,0.169L87.729,47.803L87.729,47.803z M89.934,50.262v0.594l0.339-0.594H89.934
		L89.934,50.262z M89.934,50.262v0.594l0.339-0.594H89.934L89.934,50.262z M99.773,59.847l1.526,0.594l-1.188-0.085L99.773,59.847
		L99.773,59.847z M99.773,59.847l1.526,0.594l-1.188-0.085L99.773,59.847L99.773,59.847z M100.197,62.392l0.17,0.424l1.272,0.084
		l-0.34,0.339l-0.679-0.169l-0.679-0.424L100.197,62.392L100.197,62.392z M100.197,62.392l0.17,0.424l1.272,0.084l-0.34,0.339
		l-0.679-0.169l-0.679-0.424L100.197,62.392L100.197,62.392z M102.487,62.222l-0.339,0.849l0.254,0.509l0.849-0.424l-0.594-0.085
		L102.487,62.222L102.487,62.222z M102.487,62.222l-0.339,0.849l0.254,0.509l0.849-0.424l-0.594-0.085L102.487,62.222
		L102.487,62.222z M104.354,58.15l-1.103,2.714l0.085,0.848l2.29-0.424l0.254,0.848l0.764-1.018l0.339,0.849l0.764,0.169
		l-0.339-1.357l-0.679-0.933l-1.272,0.169l-0.679-1.951L104.354,58.15L104.354,58.15z M104.354,58.15l-1.103,2.714l0.085,0.848
		l2.29-0.424l0.254,0.848l0.764-1.018l0.339,0.849l0.764,0.169l-0.339-1.357l-0.679-0.933l-1.272,0.169l-0.679-1.951L104.354,58.15
		L104.354,58.15z M89.425,43.053l-0.678,0.594l0.254,0.763l1.442-1.272v0.933l5.089,1.612l-0.594,0.424l2.884,1.018l-0.424,1.272
		l-2.205-0.933l2.035,2.544l-1.951-0.764l1.357,1.272l-2.544-0.678l-1.103-1.103h-2.036l0.339-0.594h1.611l-0.339-0.424l0.848-0.764
		l-0.848-1.103l-0.849,0.254l-0.763-1.103l-0.763,0.339l-2.629-0.594l0.509-1.357L89.425,43.053L89.425,43.053z M87.135,63.494
		h-0.679l0.848,0.339l0.17-0.254L87.135,63.494L87.135,63.494z M89.51,82.07l-0.848,0.169L89.51,82.07L89.51,82.07z M90.358,82.664
		l-0.085,0.424L90.358,82.664L90.358,82.664z M91.206,83.767v0.594V83.767L91.206,83.767z M91.97,84.614l-0.339-0.339L91.97,84.614
		L91.97,84.614z M92.055,85.378l0.339,0.764L92.055,85.378L92.055,85.378z M93.242,86.396l-0.339-0.17l0.424,0.17l-0.339,0.424
		L93.242,86.396L93.242,86.396z M93.242,86.396l-0.339-0.17l0.424,0.17l-0.339,0.424L93.242,86.396L93.242,86.396z M94.515,86.735
		H94.09H94.515L94.515,86.735z M95.023,87.074l0.679,0.255L95.023,87.074L95.023,87.074z M94.26,87.753l-0.594,0.424L94.26,87.753
		L94.26,87.753z M90.273,90.722l0.849,0.594l-0.933,0.17l-1.188-0.594L90.273,90.722L90.273,90.722z M90.188,87.414l2.969,1.527
		l-3.393,0.424l0.594-0.678l-1.018-0.254l-0.594-0.849l-3.138-0.763l0.084-0.424l-0.848-0.085l-2.036,0.763l1.103-0.933l1.951-0.339
		l1.527,0.169L90.188,87.414L90.188,87.414z M95.617,89.364l1.696,0.085l1.611,1.188l-2.12,0.424l-0.34-0.17l-0.594,0.679
		l-0.254-0.339h-0.085h-2.036l-0.594-0.509l1.951-0.085l-0.424-1.018l-0.509-0.255h1.612H95.617L95.617,89.364z M101.385,90.637
		l-0.424,0.424l-0.934-0.17L101.385,90.637L101.385,90.637z M89.425,83.851l0.17,0.763l-0.424-0.339L89.425,83.851L89.425,83.851z
		 M90.273,90.722l0.849,0.594l-0.933,0.17l-1.188-0.594L90.273,90.722L90.273,90.722z M93.242,144.583l0.17,0.763l-0.509,0.085
		L93.242,144.583L93.242,144.583z M93.242,144.583l0.17,0.763l-0.509,0.085L93.242,144.583L93.242,144.583z M92.309,148.314
		l0.254-0.085l0.169,0.425L92.309,148.314L92.309,148.314z M92.309,148.314l0.254-0.085l0.169,0.425L92.309,148.314L92.309,148.314z
		 M93.327,149.672l1.188,0.255l-0.679,0.254L93.327,149.672L93.327,149.672z M93.327,149.672l1.188,0.255l-0.679,0.254
		L93.327,149.672L93.327,149.672z M95.617,150.096v0.34l0.848,0.424l2.121-0.17l-1.951-0.679L95.617,150.096L95.617,150.096z
		 M106.474,94.878v0.339V94.878L106.474,94.878z M106.135,94.03l0.339,0.424L106.135,94.03L106.135,94.03z M105.965,93.267
		l0.17,0.424L105.965,93.267L105.965,93.267z M105.795,92.418l-0.339,0.509L105.795,92.418L105.795,92.418z M106.559,98.355
		l-0.169,0.679l-0.679,0.085l0.169-0.764H106.559L106.559,98.355z M106.559,98.355l-0.169,0.679l-0.679,0.085l0.169-0.764H106.559
		L106.559,98.355z M117.5,108.025v0.424h0.425L117.5,108.025L117.5,108.025z M117.5,108.025v0.424h0.425L117.5,108.025
		L117.5,108.025z M119.112,108.619l-0.509,1.271l-1.357,0.34v-1.357L119.112,108.619L119.112,108.619z M102.487,147.551
		l-0.509,1.273l-1.357,0.339v-1.357L102.487,147.551L102.487,147.551z M117.161,108.788l-0.509,0.51l0.085-0.679L117.161,108.788
		L117.161,108.788z M81.452,97.168l0.763,1.018l-0.763-0.254l-0.255-0.594L81.452,97.168L81.452,97.168z M81.452,97.168l0.763,1.018
		l-0.763-0.254l-0.255-0.594L81.452,97.168L81.452,97.168z M113.09,135.507l0.509,0.255l-1.696,1.356L113.09,135.507L113.09,135.507
		z M113.09,135.507l0.509,0.255l-1.696,1.356L113.09,135.507L113.09,135.507z M97.652,124.565l0.849,0.424l0.085,0.424l-1.272-0.424
		L97.652,124.565L97.652,124.565z M97.652,124.565l0.849,0.424l0.085,0.424l-1.272-0.424L97.652,124.565L97.652,124.565z
		 M78.653,55.606l0.254,2.714l-0.679,0.679v-1.527l-0.339,0.169l-0.17-1.103L78.653,55.606L78.653,55.606z M73.988,51.365
		l1.442-0.678l0.339,0.085l-0.424,0.339l1.103,0.254H73.988L73.988,51.365z M74.582,48.142l2.375,0.594l-3.902,0.764L74.582,48.142
		L74.582,48.142z M75.938,45.343h-1.951v1.272l1.781-0.254l0.679-0.594L75.938,45.343L75.938,45.343z M64.742,64.937l0.509,0.339
		l-0.254,0.764L64.742,64.937L64.742,64.937z M91.461,65.7l0.424-0.848l-1.188,0.339l0.17,0.255l-1.612,0.084l-0.509,0.424
		l0.594,0.085L91.461,65.7L91.461,65.7z M87.05,67.566l-1.272-0.255l0.254-0.254l3.393-0.679L87.05,67.566L87.05,67.566z
		 M80.264,62.477l1.272,0.084l1.781-0.593l-0.509,0.593l2.714,0.339l0.339,0.509h-1.951l-1.018,0.934l0.594-0.255l-0.933,1.697
		v1.272h0.763l0.679-2.544l1.103-0.933l1.018,0.509v0.679l-0.424,0.679l0.763-0.339l0.255,0.933l0.509-0.17l0.254-1.781l0.424,0.594
		l1.018-0.169l-0.763-0.933l-2.46-0.679h-0.084l-0.085-1.272h-0.679l-1.357-1.018L80.264,62.477L80.264,62.477z"/>
	
		<path fill="none" stroke="#F58220" stroke-width="1.499" stroke-linecap="round" stroke-linejoin="round" stroke-miterlimit="2.6131" d="
		M123.099,88.855c-0.17,0-0.254,0-0.424,0c-0.34,1.103-0.425,2.036-0.425,2.63c0.085,1.357-0.169,2.544-0.678,3.647
		c-0.509,1.356-0.679,2.714-0.764,4.071c0.085-0.255,0,0.678-0.509,0.594c-0.424-0.085-0.255-1.019-0.255-0.764
		c-0.085-1.357,0-2.714,0.424-4.071c0.51-1.188,0.679-2.375,0.425-3.732c-0.17-0.509-0.085-1.442,0.17-2.714h-0.085l-4.156,9.754
		c0.169-0.254-0.17,0.594-0.594,0.424c-0.424-0.084-0.085-0.933-0.085-0.763l3.308-10.009c0-0.084-0.084-0.084-0.17-0.084
		c-0.678,1.018-1.103,1.781-1.271,2.46c-0.34,1.272-0.934,2.375-1.781,3.308c-0.934,1.018-1.527,2.205-1.951,3.563
		c0.085-0.255-0.255,0.594-0.679,0.424c-0.424-0.169,0-1.018-0.085-0.763c0.425-1.357,0.934-2.63,1.696-3.817
		c0.934-0.933,1.442-2.036,1.527-3.393c0.085-0.594,0.509-1.527,1.188-2.714l0,0l-7.21,8.142c0.255-0.169-0.339,0.51-0.679,0.255
		c-0.339-0.255,0.255-1.018,0.085-0.763l6.616-8.821c-0.085,0-0.085-0.085-0.085-0.085c-1.357,0.509-2.29,1.018-2.799,1.527
		c-1.018,0.849-2.036,1.442-3.309,1.781c-1.356,0.339-2.459,1.018-3.563,1.866c0.255-0.085-0.593,0.424-0.763,0
		c-0.255-0.339,0.594-0.764,0.339-0.679c1.103-0.848,2.205-1.696,3.478-2.206c1.272-0.339,2.29-1.018,3.139-2.036
		c0.339-0.509,1.188-1.018,2.46-1.696l0,0l-10.434,2.969c0.255-0.085-0.594,0.254-0.763-0.169c-0.17-0.424,0.763-0.679,0.509-0.594
		l10.009-3.732v-0.169c-1.357,0.085-2.205,0.254-2.884,0.594c-1.188,0.509-2.375,0.763-3.647,0.679
		c-1.357-0.085-2.714,0.254-4.071,0.678c0.254,0-0.594,0.255-0.679-0.254c-0.085-0.424,0.764-0.594,0.509-0.509
		c1.357-0.509,2.63-0.933,4.071-1.018c1.272,0.085,2.46-0.254,3.563-1.018c0.509-0.254,1.442-0.509,2.715-0.764v-0.084
		l-10.688-0.424c0.254,0.085-0.679,0.085-0.679-0.339c0-0.424,0.933-0.424,0.679-0.424l10.688-0.424c0-0.084,0-0.254,0-0.339
		c-1.188-0.424-2.121-0.594-2.8-0.509c-1.271,0.085-2.544-0.254-3.646-0.763c-1.272-0.594-2.63-0.764-3.987-0.849
		c0.255,0.085-0.678-0.084-0.594-0.509c0.085-0.424,1.019-0.254,0.764-0.254c1.357,0,2.714,0.085,4.071,0.509
		c1.188,0.593,2.375,0.763,3.732,0.509c0.509-0.17,1.441-0.085,2.799,0.254V77.15l-9.754-4.411c0.254,0.169-0.594-0.169-0.51-0.594
		c0.17-0.424,1.019,0,0.764-0.084l10.094,3.562c0,0,0.085-0.084,0.085-0.169c-1.018-0.764-1.866-1.188-2.545-1.357
		c-1.188-0.339-2.29-1.018-3.223-1.866c-1.019-0.933-2.206-1.527-3.563-2.036c0.254,0.169-0.594-0.255-0.34-0.594
		c0.17-0.424,1.019,0,0.764-0.085c1.357,0.424,2.629,0.933,3.732,1.781c0.933,0.848,2.035,1.442,3.393,1.611
		c0.594,0,1.441,0.424,2.714,1.188l0,0l-8.058-7.294c0.255,0.169-0.509-0.424-0.255-0.763c0.34-0.339,1.019,0.254,0.764,0.169
		l8.652,6.701c0.084-0.084,0.084-0.084,0.169-0.169c-0.509-1.272-1.018-2.205-1.441-2.714c-0.849-1.018-1.442-2.12-1.781-3.308
		c-0.34-1.357-1.019-2.544-1.781-3.647c0.085,0.254-0.425-0.594,0-0.763c0.339-0.255,0.763,0.593,0.679,0.339
		c0.848,1.103,1.696,2.206,2.12,3.563c0.339,1.188,1.018,2.29,1.95,3.138c0.51,0.424,1.019,1.188,1.612,2.46h0.085l-2.715-10.433
		c0,0.254-0.254-0.594,0.17-0.764c0.424-0.084,0.679,0.764,0.509,0.509l3.478,10.009c0.085,0,0.17-0.084,0.255-0.084
		c-0.085-1.188-0.255-2.121-0.509-2.714c-0.509-1.188-0.679-2.46-0.594-3.647c0.085-1.442-0.255-2.799-0.679-4.071
		c0.085,0.254-0.17-0.679,0.255-0.679c0.509-0.084,0.593,0.764,0.509,0.509c0.593,1.357,0.933,2.629,1.018,3.986
		c-0.085,1.357,0.17,2.544,0.848,3.647c0.34,0.509,0.594,1.357,0.764,2.629h0.085l0.594-10.518c0,0.254,0-0.679,0.424-0.679
		s0.424,0.933,0.424,0.679l0.17,10.433c0.085,0,0.255,0,0.255,0c0.339-1.018,0.509-1.951,0.424-2.544
		c-0.085-1.272,0.17-2.545,0.679-3.647c0.509-1.272,0.764-2.629,0.764-3.986c-0.085,0.254,0.084-0.764,0.509-0.594
		c0.424,0,0.254,0.933,0.254,0.679c0.085,1.357,0,2.799-0.424,4.071c-0.509,1.188-0.679,2.459-0.424,3.732
		c0.169,0.594,0.085,1.442-0.17,2.629h0.085l4.156-9.584c-0.085,0.169,0.17-0.679,0.594-0.509c0.424,0.17,0.085,1.018,0.17,0.764
		l-3.394,9.924c0.085,0.085,0.17,0.085,0.255,0.17c0.679-1.018,1.018-1.782,1.188-2.46c0.339-1.272,0.933-2.291,1.781-3.223
		c0.933-1.103,1.526-2.291,1.951-3.647c-0.085,0.254,0.254-0.594,0.679-0.339c0.424,0.169,0,0.933,0.084,0.764
		c-0.424,1.272-0.933,2.629-1.696,3.732c-0.933,0.933-1.441,2.121-1.526,3.393c-0.085,0.594-0.425,1.442-1.103,2.63l0,0l7.124-7.973
		c-0.254,0.169,0.34-0.594,0.679-0.254c0.34,0.254-0.254,0.933-0.084,0.763l-6.531,8.651c0.085,0.085,0.169,0.085,0.169,0.17
		c1.272-0.509,2.121-0.933,2.63-1.442c1.018-0.933,2.12-1.527,3.308-1.781c1.272-0.424,2.46-1.103,3.563-1.951
		c-0.169,0.084,0.594-0.424,0.764,0c0.254,0.424-0.509,0.848-0.34,0.678c-1.018,0.933-2.205,1.696-3.478,2.206
		c-1.271,0.339-2.29,1.018-3.138,2.036c-0.34,0.509-1.103,1.018-2.375,1.611l0.085,0.085l10.263-2.969
		c-0.255,0.085,0.594-0.254,0.764,0.17c0.17,0.424-0.764,0.678-0.509,0.594l-9.924,3.647c0.084,0.085,0.084,0.17,0.084,0.254
		c1.188-0.084,2.121-0.254,2.715-0.593c1.188-0.509,2.375-0.679,3.647-0.594c1.441,0,2.714-0.254,4.071-0.763
		c-0.255,0.085,0.594-0.17,0.679,0.254c0.084,0.424-0.764,0.594-0.509,0.509c-1.357,0.594-2.63,1.018-3.987,1.018
		c-1.356,0-2.545,0.254-3.647,1.018c-0.509,0.339-1.356,0.594-2.629,0.764v0.085l10.603,0.424c-0.255,0,0.679-0.084,0.679,0.424
		c0,0.424-0.934,0.424-0.679,0.339l-10.518,0.424v0.17c1.103,0.339,1.95,0.509,2.629,0.424c1.272-0.085,2.545,0.169,3.647,0.679
		c1.272,0.509,2.715,0.763,4.071,0.763c-0.254-0.085,0.679,0,0.594,0.509c-0.085,0.424-1.018,0.255-0.763,0.255
		c-1.357,0.084-2.8,0-4.072-0.424c-1.188-0.509-2.46-0.678-3.731-0.424c-0.509,0.17-1.442,0.085-2.715-0.169v0.085l9.67,4.156
		c-0.17-0.085,0.679,0.169,0.509,0.594c-0.17,0.424-1.018,0.084-0.764,0.084l-10.009-3.308c0,0.084-0.085,0.169-0.085,0.254
		c1.019,0.679,1.782,1.018,2.46,1.188c1.272,0.339,2.291,0.933,3.224,1.781c1.103,0.933,2.29,1.527,3.647,2.036
		c-0.255-0.17,0.593,0.169,0.339,0.594c-0.17,0.424-0.933,0-0.764,0.084c-1.272-0.424-2.544-0.933-3.731-1.696
		c-0.934-0.934-2.121-1.442-3.393-1.527c-0.595-0.084-1.527-0.424-2.63-1.103h-0.085l8.143,7.125
		c-0.254-0.17,0.509,0.339,0.255,0.678c-0.34,0.339-1.018-0.254-0.764-0.084l-8.736-6.531c-0.085,0.085-0.085,0.085-0.17,0.169
		c0.509,1.273,1.019,2.121,1.442,2.629c0.933,1.018,1.526,2.121,1.781,3.308c0.424,1.357,1.103,2.46,1.95,3.648
		c-0.084-0.34,0.425,0.509,0,0.763c-0.339,0.17-0.763-0.679-0.678-0.424c-0.934-1.018-1.697-2.206-2.206-3.478
		c-0.339-1.272-1.018-2.29-2.035-3.138c-0.509-0.339-1.018-1.103-1.612-2.375l-0.084,0.084l2.969,10.264
		c-0.085-0.255,0.254,0.678-0.17,0.763c-0.424,0.17-0.679-0.763-0.594-0.509l-3.647-9.839c-0.085,0-0.17,0-0.255,0.085
		c0.085,1.187,0.255,2.035,0.594,2.629c0.51,1.187,0.679,2.459,0.595,3.647c0,1.442,0.254,2.714,0.763,4.071
		c-0.085-0.254,0.17,0.594-0.254,0.679c-0.425,0.085-0.594-0.764-0.509-0.509c-0.595-1.272-1.019-2.63-1.019-3.987
		c0-1.356-0.254-2.544-1.018-3.646c-0.255-0.509-0.594-1.357-0.764-2.545h-0.085l-0.424,10.518c0.085-0.254,0.085,0.679-0.424,0.679
		c-0.425,0-0.425-0.933-0.339-0.679L123.099,88.855L123.099,88.855z"/>
	<path fill-rule="evenodd" clip-rule="evenodd" fill="#FFCB05" d="M123.099,88.855c-0.17,0-0.254,0-0.424,0
		c-0.34,1.103-0.425,2.036-0.425,2.63c0.085,1.357-0.169,2.544-0.678,3.647c-0.509,1.356-0.679,2.714-0.764,4.071
		c0.085-0.255,0,0.678-0.509,0.594c-0.424-0.085-0.255-1.019-0.255-0.764c-0.085-1.357,0-2.714,0.424-4.071
		c0.51-1.188,0.679-2.375,0.425-3.732c-0.17-0.509-0.085-1.442,0.17-2.714h-0.085l-4.156,9.754c0.169-0.254-0.17,0.594-0.594,0.424
		c-0.424-0.084-0.085-0.933-0.085-0.763l3.308-10.009c0-0.084-0.084-0.084-0.17-0.084c-0.678,1.018-1.103,1.781-1.271,2.46
		c-0.34,1.272-0.934,2.375-1.781,3.308c-0.934,1.018-1.527,2.205-1.951,3.563c0.085-0.255-0.255,0.594-0.679,0.424
		c-0.424-0.169,0-1.018-0.085-0.763c0.425-1.357,0.934-2.63,1.696-3.817c0.934-0.933,1.442-2.036,1.527-3.393
		c0.085-0.594,0.509-1.527,1.188-2.714l0,0l-7.21,8.142c0.255-0.169-0.339,0.51-0.679,0.255c-0.339-0.255,0.255-1.018,0.085-0.763
		l6.616-8.821c-0.085,0-0.085-0.085-0.085-0.085c-1.357,0.509-2.29,1.018-2.799,1.527c-1.018,0.849-2.036,1.442-3.309,1.781
		c-1.356,0.339-2.459,1.018-3.563,1.866c0.255-0.085-0.593,0.424-0.763,0c-0.255-0.339,0.594-0.764,0.339-0.679
		c1.103-0.848,2.205-1.696,3.478-2.206c1.272-0.339,2.29-1.018,3.139-2.036c0.339-0.509,1.188-1.018,2.46-1.696l0,0l-10.434,2.969
		c0.255-0.085-0.594,0.254-0.763-0.169c-0.17-0.424,0.763-0.679,0.509-0.594l10.009-3.732v-0.169
		c-1.357,0.085-2.205,0.254-2.884,0.594c-1.188,0.509-2.375,0.763-3.647,0.679c-1.357-0.085-2.714,0.254-4.071,0.678
		c0.254,0-0.594,0.255-0.679-0.254c-0.085-0.424,0.764-0.594,0.509-0.509c1.357-0.509,2.63-0.933,4.071-1.018
		c1.272,0.085,2.46-0.254,3.563-1.018c0.509-0.254,1.442-0.509,2.715-0.764v-0.084l-10.688-0.424
		c0.254,0.085-0.679,0.085-0.679-0.339c0-0.424,0.933-0.424,0.679-0.424l10.688-0.424c0-0.084,0-0.254,0-0.339
		c-1.188-0.424-2.121-0.594-2.8-0.509c-1.271,0.085-2.544-0.254-3.646-0.763c-1.272-0.594-2.63-0.764-3.987-0.849
		c0.255,0.085-0.678-0.084-0.594-0.509c0.085-0.424,1.019-0.254,0.764-0.254c1.357,0,2.714,0.085,4.071,0.509
		c1.188,0.593,2.375,0.763,3.732,0.509c0.509-0.17,1.441-0.085,2.799,0.254V77.15l-9.754-4.411c0.254,0.169-0.594-0.169-0.51-0.594
		c0.17-0.424,1.019,0,0.764-0.084l10.094,3.562c0,0,0.085-0.084,0.085-0.169c-1.018-0.764-1.866-1.188-2.545-1.357
		c-1.188-0.339-2.29-1.018-3.223-1.866c-1.019-0.933-2.206-1.527-3.563-2.036c0.254,0.169-0.594-0.255-0.34-0.594
		c0.17-0.424,1.019,0,0.764-0.085c1.357,0.424,2.629,0.933,3.732,1.781c0.933,0.848,2.035,1.442,3.393,1.611
		c0.594,0,1.441,0.424,2.714,1.188l0,0l-8.058-7.294c0.255,0.169-0.509-0.424-0.255-0.763c0.34-0.339,1.019,0.254,0.764,0.169
		l8.652,6.701c0.084-0.084,0.084-0.084,0.169-0.169c-0.509-1.272-1.018-2.205-1.441-2.714c-0.849-1.018-1.442-2.12-1.781-3.308
		c-0.34-1.357-1.019-2.544-1.781-3.647c0.085,0.254-0.425-0.594,0-0.763c0.339-0.255,0.763,0.593,0.679,0.339
		c0.848,1.103,1.696,2.206,2.12,3.563c0.339,1.188,1.018,2.29,1.95,3.138c0.51,0.424,1.019,1.188,1.612,2.46h0.085l-2.715-10.433
		c0,0.254-0.254-0.594,0.17-0.764c0.424-0.084,0.679,0.764,0.509,0.509l3.478,10.009c0.085,0,0.17-0.084,0.255-0.084
		c-0.085-1.188-0.255-2.121-0.509-2.714c-0.509-1.188-0.679-2.46-0.594-3.647c0.085-1.442-0.255-2.799-0.679-4.071
		c0.085,0.254-0.17-0.679,0.255-0.679c0.509-0.084,0.593,0.764,0.509,0.509c0.593,1.357,0.933,2.629,1.018,3.986
		c-0.085,1.357,0.17,2.544,0.848,3.647c0.34,0.509,0.594,1.357,0.764,2.629h0.085l0.594-10.518c0,0.254,0-0.679,0.424-0.679
		s0.424,0.933,0.424,0.679l0.17,10.433c0.085,0,0.255,0,0.255,0c0.339-1.018,0.509-1.951,0.424-2.544
		c-0.085-1.272,0.17-2.545,0.679-3.647c0.509-1.272,0.764-2.629,0.764-3.986c-0.085,0.254,0.084-0.764,0.509-0.594
		c0.424,0,0.254,0.933,0.254,0.679c0.085,1.357,0,2.799-0.424,4.071c-0.509,1.188-0.679,2.459-0.424,3.732
		c0.169,0.594,0.085,1.442-0.17,2.629h0.085l4.156-9.584c-0.085,0.169,0.17-0.679,0.594-0.509c0.424,0.17,0.085,1.018,0.17,0.764
		l-3.394,9.924c0.085,0.085,0.17,0.085,0.255,0.17c0.679-1.018,1.018-1.782,1.188-2.46c0.339-1.272,0.933-2.291,1.781-3.223
		c0.933-1.103,1.526-2.291,1.951-3.647c-0.085,0.254,0.254-0.594,0.679-0.339c0.424,0.169,0,0.933,0.084,0.764
		c-0.424,1.272-0.933,2.629-1.696,3.732c-0.933,0.933-1.441,2.121-1.526,3.393c-0.085,0.594-0.425,1.442-1.103,2.63l0,0l7.124-7.973
		c-0.254,0.169,0.34-0.594,0.679-0.254c0.34,0.254-0.254,0.933-0.084,0.763l-6.531,8.651c0.085,0.085,0.169,0.085,0.169,0.17
		c1.272-0.509,2.121-0.933,2.63-1.442c1.018-0.933,2.12-1.527,3.308-1.781c1.272-0.424,2.46-1.103,3.563-1.951
		c-0.169,0.084,0.594-0.424,0.764,0c0.254,0.424-0.509,0.848-0.34,0.678c-1.018,0.933-2.205,1.696-3.478,2.206
		c-1.271,0.339-2.29,1.018-3.138,2.036c-0.34,0.509-1.103,1.018-2.375,1.611l0.085,0.085l10.263-2.969
		c-0.255,0.085,0.594-0.254,0.764,0.17c0.17,0.424-0.764,0.678-0.509,0.594l-9.924,3.647c0.084,0.085,0.084,0.17,0.084,0.254
		c1.188-0.084,2.121-0.254,2.715-0.593c1.188-0.509,2.375-0.679,3.647-0.594c1.441,0,2.714-0.254,4.071-0.763
		c-0.255,0.085,0.594-0.17,0.679,0.254c0.084,0.424-0.764,0.594-0.509,0.509c-1.357,0.594-2.63,1.018-3.987,1.018
		c-1.356,0-2.545,0.254-3.647,1.018c-0.509,0.339-1.356,0.594-2.629,0.764v0.085l10.603,0.424c-0.255,0,0.679-0.084,0.679,0.424
		c0,0.424-0.934,0.424-0.679,0.339l-10.518,0.424v0.17c1.103,0.339,1.95,0.509,2.629,0.424c1.272-0.085,2.545,0.169,3.647,0.679
		c1.272,0.509,2.715,0.763,4.071,0.763c-0.254-0.085,0.679,0,0.594,0.509c-0.085,0.424-1.018,0.255-0.763,0.255
		c-1.357,0.084-2.8,0-4.072-0.424c-1.188-0.509-2.46-0.678-3.731-0.424c-0.509,0.17-1.442,0.085-2.715-0.169v0.085l9.67,4.156
		c-0.17-0.085,0.679,0.169,0.509,0.594c-0.17,0.424-1.018,0.084-0.764,0.084l-10.009-3.308c0,0.084-0.085,0.169-0.085,0.254
		c1.019,0.679,1.782,1.018,2.46,1.188c1.272,0.339,2.291,0.933,3.224,1.781c1.103,0.933,2.29,1.527,3.647,2.036
		c-0.255-0.17,0.593,0.169,0.339,0.594c-0.17,0.424-0.933,0-0.764,0.084c-1.272-0.424-2.544-0.933-3.731-1.696
		c-0.934-0.934-2.121-1.442-3.393-1.527c-0.595-0.084-1.527-0.424-2.63-1.103h-0.085l8.143,7.125
		c-0.254-0.17,0.509,0.339,0.255,0.678c-0.34,0.339-1.018-0.254-0.764-0.084l-8.736-6.531c-0.085,0.085-0.085,0.085-0.17,0.169
		c0.509,1.273,1.019,2.121,1.442,2.629c0.933,1.018,1.526,2.121,1.781,3.308c0.424,1.357,1.103,2.46,1.95,3.648
		c-0.084-0.34,0.425,0.509,0,0.763c-0.339,0.17-0.763-0.679-0.678-0.424c-0.934-1.018-1.697-2.206-2.206-3.478
		c-0.339-1.272-1.018-2.29-2.035-3.138c-0.509-0.339-1.018-1.103-1.612-2.375l-0.084,0.084l2.969,10.264
		c-0.085-0.255,0.254,0.678-0.17,0.763c-0.424,0.17-0.679-0.763-0.594-0.509l-3.647-9.839c-0.085,0-0.17,0-0.255,0.085
		c0.085,1.187,0.255,2.035,0.594,2.629c0.51,1.187,0.679,2.459,0.595,3.647c0,1.442,0.254,2.714,0.763,4.071
		c-0.085-0.254,0.17,0.594-0.254,0.679c-0.425,0.085-0.594-0.764-0.509-0.509c-0.595-1.272-1.019-2.63-1.019-3.987
		c0-1.356-0.254-2.544-1.018-3.646c-0.255-0.509-0.594-1.357-0.764-2.545h-0.085l-0.424,10.518c0.085-0.254,0.085,0.679-0.424,0.679
		c-0.425,0-0.425-0.933-0.339-0.679L123.099,88.855L123.099,88.855z"/>
	<path fill-rule="evenodd" clip-rule="evenodd" fill="#FFFFFF" d="M47.523,117.949v-8.482h-2.375l1.357-2.545h3.817v11.027H47.523
		L47.523,117.949z M58.55,112.351c0.509,0,0.933-0.169,1.188-0.509c0.339-0.254,0.424-0.679,0.424-1.188s-0.084-0.933-0.424-1.272
		c-0.339-0.339-0.679-0.424-1.188-0.424c-0.594,0-0.933,0.085-1.272,0.424c-0.255,0.34-0.424,0.764-0.424,1.272
		s0.169,0.934,0.424,1.188C57.617,112.182,57.957,112.351,58.55,112.351L58.55,112.351z M58.635,114.132
		c-0.169,0-0.339,0.085-0.509,0.085c-0.255,0.085-0.424,0.085-0.679,0.085c-0.933,0-1.696-0.339-2.29-1.018
		c-0.594-0.679-0.933-1.527-0.933-2.545c0-1.188,0.339-2.205,1.103-2.884c0.848-0.764,1.866-1.188,3.139-1.188
		c1.272,0,2.29,0.424,3.053,1.103c0.763,0.764,1.188,1.781,1.188,2.969c0,0.679-0.169,1.357-0.424,2.12
		c-0.339,0.679-0.848,1.612-1.611,2.8l-1.527,2.29H56.09L58.635,114.132L58.635,114.132z M72.376,112.605
		c0,1.781-0.339,3.139-1.103,4.156c-0.764,1.018-1.781,1.526-3.138,1.526c-1.272,0-2.29-0.509-3.054-1.526
		c-0.763-1.018-1.103-2.46-1.103-4.241c0-1.866,0.339-3.223,1.103-4.241c0.764-1.018,1.781-1.526,3.054-1.526
		c1.357,0,2.375,0.509,3.138,1.526C72.037,109.298,72.376,110.739,72.376,112.605L72.376,112.605z M66.778,112.521
		c0,1.188,0.085,2.036,0.339,2.629c0.17,0.595,0.594,0.849,1.018,0.849c0.509,0,0.848-0.254,1.103-0.849
		c0.254-0.593,0.339-1.441,0.339-2.629c0-1.272-0.085-2.12-0.339-2.714c-0.254-0.509-0.594-0.849-1.103-0.849
		c-0.424,0-0.848,0.34-1.018,0.849C66.863,110.4,66.778,111.248,66.778,112.521L66.778,112.521z M77.974,112.351
		c0.509,0,0.933-0.169,1.272-0.509c0.254-0.254,0.424-0.679,0.424-1.188s-0.17-0.933-0.424-1.272
		c-0.339-0.339-0.763-0.424-1.272-0.424c-0.509,0-0.933,0.085-1.188,0.424c-0.339,0.34-0.509,0.764-0.509,1.272
		s0.169,0.934,0.509,1.188C77.041,112.182,77.465,112.351,77.974,112.351L77.974,112.351z M78.144,114.132
		c-0.17,0-0.339,0.085-0.594,0.085c-0.17,0.085-0.339,0.085-0.594,0.085c-0.933,0-1.697-0.339-2.375-1.018
		c-0.594-0.679-0.848-1.527-0.848-2.545c0-1.188,0.339-2.205,1.103-2.884c0.763-0.764,1.781-1.188,3.138-1.188
		c1.272,0,2.29,0.424,3.054,1.103c0.764,0.764,1.188,1.781,1.188,2.969c0,0.679-0.17,1.357-0.509,2.12
		c-0.254,0.679-0.763,1.612-1.526,2.8l-1.527,2.29h-3.138L78.144,114.132L78.144,114.132z"/>
	<path fill-rule="evenodd" clip-rule="evenodd" fill="#0072B4" d="M29.542,65.36c0.679-0.17,1.272-0.339,1.697-0.679
		c0.424-0.254,0.763-0.594,1.018-1.018c0.17-0.339,0.254-0.764,0.17-1.103c-0.085-0.339-0.255-0.593-0.594-0.763
		c-0.339-0.169-0.679-0.169-0.933-0.085c-0.339,0.085-0.763,0.509-1.357,1.103c-0.763,0.848-1.526,1.357-2.205,1.611
		c-0.594,0.17-1.357,0.085-2.121-0.339c-0.933-0.509-1.611-1.272-1.866-2.29c-0.254-1.018-0.084-2.036,0.424-3.054
		c0.339-0.594,0.678-1.103,1.103-1.526c0.424-0.424,0.933-0.764,1.441-1.018l1.612,1.951c-0.509,0.17-0.848,0.339-1.188,0.594
		c-0.339,0.255-0.594,0.594-0.763,0.933c-0.17,0.339-0.17,0.594-0.17,0.933c0.085,0.254,0.17,0.509,0.424,0.679
		c0.254,0.085,0.594,0.085,0.763,0c0.254-0.085,0.594-0.339,1.018-0.848c0.084,0,0.084,0,0.169-0.085
		c0.848-0.933,1.612-1.527,2.205-1.696c0.339-0.085,0.764-0.17,1.188-0.085c0.424,0.085,0.848,0.169,1.272,0.424
		c1.103,0.594,1.781,1.442,2.121,2.459c0.254,1.103,0.085,2.206-0.594,3.478c-0.339,0.678-0.848,1.272-1.357,1.696
		c-0.593,0.509-1.272,0.848-2.12,1.103L29.542,65.36L29.542,65.36z M41.247,44.495c0.678,0.509,1.188,1.103,1.527,1.781
		c0.424,0.764,0.593,1.527,0.679,2.291c0.084,0.848,0,1.696-0.255,2.459c-0.169,0.764-0.594,1.527-1.103,2.121
		c-0.509,0.678-1.188,1.187-1.866,1.611c-0.763,0.339-1.526,0.594-2.29,0.679c-0.848,0.169-1.612,0.084-2.46-0.17
		c-0.763-0.169-1.442-0.594-2.121-1.103c-0.593-0.509-1.103-1.103-1.526-1.866c-0.339-0.679-0.594-1.442-0.679-2.291
		c-0.085-0.764,0-1.611,0.254-2.375c0.254-0.848,0.594-1.527,1.188-2.205c0.509-0.594,1.103-1.103,1.866-1.527
		c0.678-0.424,1.442-0.679,2.29-0.764c0.848-0.084,1.612,0,2.375,0.17C39.89,43.562,40.568,43.901,41.247,44.495L41.247,44.495z
		 M39.975,51.45c0.594-0.678,0.763-1.442,0.679-2.29c-0.169-0.848-0.594-1.612-1.442-2.206c-0.764-0.593-1.527-0.933-2.46-0.848
		c-0.848,0-1.527,0.339-2.121,1.018c-0.509,0.679-0.763,1.527-0.594,2.375c0.17,0.848,0.594,1.611,1.357,2.205
		c0.763,0.594,1.611,0.934,2.459,0.848C38.703,52.552,39.466,52.213,39.975,51.45L39.975,51.45z M48.626,45.512l-7.464-8.906
		l2.375-2.036l5.768,6.786l3.054-2.544l1.781,2.121L48.626,45.512L48.626,45.512z M59.823,37.285l-5.344-10.433l2.205-1.103
		c1.612-0.848,2.799-1.357,3.563-1.527c0.763-0.169,1.442-0.254,2.12-0.084c0.933,0.084,1.696,0.424,2.375,0.933
		c0.764,0.594,1.357,1.272,1.781,2.205c0.509,0.933,0.764,1.866,0.764,2.714c0,0.933-0.17,1.781-0.594,2.545
		c-0.339,0.593-0.764,1.188-1.357,1.611c-0.594,0.509-1.527,1.103-2.884,1.781l-0.509,0.254L59.823,37.285L59.823,37.285z
		 M61.434,33.468l0.509-0.169c1.103-0.594,1.781-1.272,2.036-1.951c0.339-0.763,0.169-1.611-0.339-2.544
		c-0.509-1.018-1.103-1.612-1.866-1.866c-0.763-0.17-1.696,0-2.799,0.593l-0.509,0.255L61.434,33.468L61.434,33.468z M72.885,31.263
		l-2.969-11.281l6.87-1.781l0.679,2.46l-3.902,1.018l0.509,1.951l3.732-0.933l0.594,2.375l-3.647,1.018l0.509,1.866l3.902-1.018
		l0.679,2.544L72.885,31.263L72.885,31.263z M90.019,23.713h3.138l-1.188-3.817c-0.085-0.169-0.17-0.339-0.17-0.594
		c-0.085-0.254-0.169-0.594-0.254-1.018c-0.084,0.339-0.169,0.594-0.254,0.848c0,0.254-0.085,0.509-0.169,0.763L90.019,23.713
		L90.019,23.713z M85.608,28.209l3.816-11.79h3.987l4.241,11.536l-3.138,0.084l-0.594-2.12l-4.58,0.085l-0.509,2.12L85.608,28.209
		L85.608,28.209z M113.938,30.584l-2.884-0.509l0.169-5.089c0-0.424,0-0.764,0.085-1.188c0-0.509,0.085-0.933,0.17-1.442
		c-0.17,0.424-0.424,1.018-0.764,1.696c-0.085,0.169-0.17,0.254-0.17,0.339l-2.544,5.089l-2.121-0.339l-0.594-5.683
		c0-0.085,0-0.169,0-0.339c-0.085-0.763-0.169-1.357-0.085-1.866c-0.169,0.424-0.254,0.848-0.339,1.272
		c-0.17,0.424-0.255,0.848-0.424,1.272l-1.527,4.834l-2.969-0.509l3.817-11.196l3.139,0.509l0.678,6.277c0,0,0,0.085,0,0.169
		c0.085,0.594,0.085,1.103,0.085,1.442c0.085-0.17,0.17-0.424,0.255-0.679s0.254-0.509,0.424-0.848l2.799-5.598l3.054,0.594
		L113.938,30.584L113.938,30.584z M117.416,32.11l4.75-10.687l6.531,2.969l-1.019,2.29l-3.731-1.611l-0.764,1.866l3.478,1.526
		l-1.018,2.291l-3.478-1.527l-0.849,1.781l3.732,1.612l-1.103,2.375L117.416,32.11L117.416,32.11z M127.425,37.03l6.191-9.924
		l2.799,1.781c1.104,0.679,1.866,1.188,2.206,1.611c0.424,0.339,0.679,0.764,0.848,1.188c0.17,0.509,0.255,1.018,0.17,1.527
		c-0.085,0.594-0.255,1.103-0.594,1.612c-0.424,0.763-1.018,1.272-1.696,1.526c-0.679,0.255-1.442,0.17-2.29-0.084l0.254,5.683
		l-3.053-1.951l0.169-5.259l-2.46,3.817L127.425,37.03L127.425,37.03z M133.192,33.383l0.509,0.339
		c0.594,0.339,1.103,0.509,1.527,0.424c0.339,0,0.678-0.254,0.933-0.679c0.34-0.424,0.424-0.848,0.34-1.272
		c-0.17-0.339-0.51-0.679-1.104-1.103l-0.509-0.339L133.192,33.383L133.192,33.383z M137.519,44.41l7.549-8.991l2.46,2.121
		l-7.549,8.906L137.519,44.41L137.519,44.41z M157.281,49.075l-2.714,2.206c0.085-0.679,0.085-1.188,0-1.697
		c-0.085-0.509-0.34-0.933-0.594-1.272c-0.594-0.764-1.357-1.103-2.205-1.188c-0.764,0-1.612,0.254-2.376,0.933
		c-0.763,0.594-1.187,1.272-1.271,2.121c-0.17,0.848,0.085,1.611,0.679,2.29c0.254,0.424,0.678,0.679,1.103,0.848
		c0.424,0.254,1.018,0.339,1.696,0.339l-2.715,2.205c-0.509-0.254-1.018-0.509-1.441-0.848c-0.34-0.254-0.764-0.594-1.019-1.018
		c-0.424-0.509-0.763-1.018-0.933-1.526c-0.254-0.509-0.424-1.018-0.424-1.612c-0.085-1.018,0.085-2.036,0.424-2.884
		c0.425-0.933,1.103-1.781,1.951-2.46c0.679-0.594,1.357-0.933,2.12-1.188c0.764-0.254,1.527-0.339,2.375-0.254
		c0.849,0.085,1.527,0.339,2.206,0.679c0.594,0.339,1.271,0.848,1.781,1.526c0.339,0.425,0.593,0.849,0.763,1.272
		C156.942,48.057,157.111,48.566,157.281,49.075L157.281,49.075z M155.925,60.017l1.526,2.799l2.799-2.884
		c0.085-0.084,0.255-0.169,0.424-0.339c0.255-0.254,0.51-0.424,0.849-0.764c-0.339,0.085-0.594,0.17-0.849,0.254
		c-0.254,0.085-0.509,0.085-0.763,0.17L155.925,60.017L155.925,60.017z M149.987,58.15l12.214-1.951l1.866,3.563l-8.397,8.991
		l-1.526-2.799l1.611-1.442l-2.12-4.071l-2.121,0.509L149.987,58.15L149.987,58.15z M20.127,105.565l0.509,3.054l3.563-1.781
		c0.169-0.085,0.339-0.17,0.593-0.255c0.17-0.085,0.509-0.254,0.933-0.424c-0.339,0-0.594,0-0.848-0.085
		c-0.255,0-0.509,0-0.764-0.085L20.127,105.565L20.127,105.565z M15.038,101.918l12.214,1.951l0.679,3.901l-10.857,6.022
		l-0.509-3.139l1.951-0.933l-0.764-4.496l-2.205-0.169L15.038,101.918L15.038,101.918z M21.738,115.998
		c-0.339,0.679-0.594,1.188-0.679,1.781c-0.085,0.509-0.085,0.934,0.085,1.357c0.085,0.424,0.339,0.763,0.678,0.933
		c0.255,0.17,0.594,0.17,0.934,0.085c0.339-0.085,0.593-0.339,0.763-0.594c0.085-0.339,0.085-0.933,0.085-1.781
		c-0.085-1.188,0-2.035,0.339-2.63c0.255-0.678,0.848-1.103,1.697-1.356c1.018-0.34,2.036-0.34,2.884,0.17
		c0.933,0.509,1.612,1.272,1.951,2.375c0.254,0.593,0.339,1.271,0.339,1.865c0.085,0.594,0,1.188-0.169,1.781l-2.46-0.169
		c0.17-0.509,0.254-0.934,0.254-1.272c0-0.425,0-0.849-0.169-1.188c-0.085-0.34-0.254-0.594-0.509-0.764
		c-0.254-0.17-0.509-0.254-0.763-0.17c-0.339,0.17-0.509,0.34-0.594,0.594c-0.085,0.255-0.085,0.679-0.085,1.272
		c0,0.085,0,0.085,0,0.17c0.085,1.357,0,2.29-0.254,2.799c-0.169,0.34-0.424,0.679-0.763,0.934
		c-0.339,0.254-0.763,0.424-1.188,0.594c-1.188,0.424-2.291,0.339-3.223-0.17c-1.018-0.509-1.697-1.442-2.121-2.715
		c-0.254-0.763-0.424-1.526-0.339-2.205c0-0.764,0.254-1.441,0.594-2.29L21.738,115.998L21.738,115.998z M33.104,123.972
		l1.611,2.799l-4.919,2.799c-0.764,0.424-1.272,0.764-1.527,0.934c-0.339,0.254-0.509,0.509-0.679,0.678
		c-0.17,0.255-0.254,0.594-0.254,0.934c0,0.339,0.084,0.679,0.339,1.018c0.169,0.424,0.424,0.679,0.763,0.849
		c0.254,0.169,0.594,0.254,0.848,0.254c0.339-0.085,0.594-0.17,0.933-0.254c0.339-0.17,0.848-0.425,1.612-0.849l0.678-0.424
		l4.241-2.46l1.527,2.714l-5.344,3.139c-1.103,0.594-1.951,1.018-2.545,1.188c-0.593,0.17-1.188,0.255-1.696,0.085
		c-0.678-0.085-1.187-0.34-1.781-0.849c-0.509-0.509-1.103-1.188-1.611-2.035c-0.424-0.849-0.763-1.612-0.933-2.375
		c-0.169-0.679-0.085-1.357,0.084-1.951c0.255-0.509,0.509-1.018,1.018-1.441c0.424-0.425,1.188-1.019,2.29-1.612l1.103-0.594
		L33.104,123.972L33.104,123.972z M30.814,142.378l8.821-7.719l2.036,2.374l-1.696,7.21c0,0.17-0.085,0.425-0.254,0.849
		c-0.169,0.339-0.339,0.848-0.594,1.357c0.339-0.425,0.679-0.679,0.933-1.019c0.254-0.254,0.509-0.509,0.678-0.679l4.411-3.731
		l1.951,2.29l-8.821,7.634l-1.951-2.29l1.612-7.295c0.085-0.17,0.169-0.424,0.339-0.764c0.085-0.424,0.339-0.848,0.509-1.356
		c-0.339,0.339-0.594,0.679-0.848,0.933c-0.254,0.255-0.509,0.509-0.763,0.679l-4.326,3.817L30.814,142.378L30.814,142.378z
		 M55.327,150.52l-2.206,2.715c0-0.679-0.084-1.188-0.339-1.611c-0.17-0.509-0.424-0.849-0.849-1.188
		c-0.678-0.509-1.442-0.764-2.29-0.679c-0.848,0.17-1.611,0.594-2.205,1.357c-0.594,0.763-0.848,1.526-0.764,2.374
		c0,0.849,0.424,1.527,1.103,2.121c0.339,0.339,0.763,0.509,1.272,0.594c0.509,0.085,1.018,0.085,1.696,0l-2.206,2.714
		c-0.509-0.084-1.018-0.254-1.527-0.509c-0.424-0.254-0.848-0.509-1.272-0.848c-0.509-0.34-0.933-0.764-1.188-1.272
		c-0.339-0.424-0.593-0.934-0.763-1.442c-0.339-1.018-0.339-2.035-0.169-2.969c0.254-1.018,0.679-1.95,1.357-2.799
		c0.594-0.679,1.188-1.188,1.866-1.611c0.678-0.34,1.442-0.594,2.29-0.679c0.763-0.085,1.527-0.085,2.29,0.17
		c0.679,0.169,1.357,0.593,2.036,1.103c0.424,0.339,0.764,0.679,1.018,1.103C54.818,149.587,55.073,150.011,55.327,150.52
		L55.327,150.52z M51.68,161.377l6.361-9.754l2.714,1.696l-6.362,9.839L51.68,161.377L51.68,161.377z M71.613,164.685
		c-0.339,0.764-0.764,1.442-1.272,1.951c-0.594,0.594-1.272,1.018-2.036,1.357c-0.764,0.339-1.527,0.424-2.375,0.424
		s-1.611-0.085-2.375-0.424c-0.764-0.34-1.442-0.764-2.036-1.357c-0.594-0.509-1.103-1.188-1.357-1.951
		c-0.424-0.763-0.593-1.526-0.593-2.374c0-0.764,0.169-1.527,0.509-2.375c0.254-0.764,0.679-1.442,1.272-1.951
		c0.594-0.594,1.272-1.018,2.036-1.357c0.763-0.339,1.526-0.424,2.375-0.424c0.764,0,1.612,0.085,2.375,0.424
		c0.763,0.34,1.442,0.764,2.036,1.357s1.103,1.188,1.357,1.951c0.339,0.763,0.509,1.526,0.509,2.375
		C72.037,163.073,71.952,163.837,71.613,164.685L71.613,164.685z M64.572,165.533c0.764,0.255,1.612,0.255,2.375-0.085
		c0.763-0.424,1.357-1.103,1.696-1.95c0.424-0.934,0.424-1.781,0.084-2.63c-0.254-0.848-0.848-1.442-1.611-1.696
		c-0.848-0.339-1.611-0.339-2.375,0.085c-0.763,0.339-1.357,1.018-1.781,1.95c-0.339,0.849-0.339,1.781-0.084,2.545
		C63.13,164.601,63.725,165.194,64.572,165.533L64.572,165.533z M73.225,171.217l2.29-11.451l2.969,0.594l3.223,6.701
		c0,0.169,0.17,0.424,0.255,0.848c0.084,0.34,0.254,0.849,0.339,1.357c0.084-0.509,0.084-0.934,0.169-1.272
		c0-0.34,0.085-0.679,0.085-1.018l1.103-5.599l3.054,0.509l-2.206,11.451l-3.053-0.509l-3.139-6.786
		c-0.085-0.169-0.169-0.424-0.339-0.848c-0.084-0.34-0.169-0.849-0.339-1.357c0,0.509-0.084,0.933-0.084,1.272
		c-0.085,0.424-0.085,0.764-0.17,1.018l-1.103,5.684L73.225,171.217L73.225,171.217z M91.8,171.132l-0.085-2.545l5.429-0.255
		l0.085,2.63L91.8,171.132L91.8,171.132z M107.661,172.573l-2.969,0.594l-2.205-11.45l3.224-0.679
		c1.271-0.17,2.205-0.34,2.714-0.255c0.594,0,1.018,0.085,1.442,0.34c0.509,0.254,0.933,0.679,1.271,1.103
		c0.34,0.509,0.51,1.103,0.679,1.696c0.085,0.679,0.085,1.357,0,1.866c-0.085,0.594-0.339,1.103-0.763,1.526
		c-0.255,0.255-0.594,0.509-1.019,0.764c-0.424,0.17-1.103,0.339-2.035,0.509l-0.594,0.17l-0.509,0.085L107.661,172.573
		L107.661,172.573z M106.39,166.297l0.593-0.085c0.764-0.17,1.272-0.339,1.527-0.679c0.254-0.254,0.339-0.594,0.254-1.103
		c-0.084-0.509-0.339-0.764-0.678-0.933c-0.34-0.17-0.849-0.17-1.612,0l-0.594,0.085L106.39,166.297L106.39,166.297z M117.5,165.533
		l2.969-1.103l-2.459-3.224c-0.085-0.084-0.17-0.254-0.34-0.424c-0.17-0.254-0.339-0.509-0.594-0.848
		c0.085,0.254,0.085,0.509,0.085,0.848c0.085,0.255,0.085,0.509,0.085,0.764L117.5,165.533L117.5,165.533z M114.786,171.132
		l-0.254-12.299l3.731-1.357l7.804,9.585l-2.969,1.103l-1.272-1.781l-4.24,1.526l0.169,2.205L114.786,171.132L114.786,171.132z
		 M128.951,165.788l-6.022-10.009l2.885-1.781c1.103-0.679,1.95-1.019,2.374-1.188c0.51-0.17,1.019-0.255,1.527-0.17
		c0.509,0,0.933,0.17,1.441,0.509c0.425,0.339,0.764,0.764,1.104,1.272c0.509,0.764,0.678,1.442,0.594,2.205
		c-0.085,0.679-0.51,1.357-1.104,1.951l5.175,2.375l-3.139,1.866l-4.58-2.545l2.29,3.901L128.951,165.788L128.951,165.788z
		 M128.357,158.917l0.509-0.254c0.594-0.425,0.934-0.764,1.103-1.103c0.17-0.34,0.085-0.764-0.169-1.188
		c-0.34-0.509-0.679-0.764-1.018-0.849c-0.425-0.085-0.849,0.085-1.442,0.424l-0.594,0.34L128.357,158.917L128.357,158.917z
		 M139.894,153.404l2.459-1.951l-3.393-2.29c-0.085-0.085-0.254-0.17-0.424-0.339c-0.255-0.17-0.509-0.34-0.849-0.595
		c0.17,0.255,0.255,0.51,0.34,0.764c0.17,0.255,0.254,0.424,0.339,0.679L139.894,153.404L139.894,153.404z M139.13,159.596
		l-4.156-11.62l3.054-2.46l10.518,6.531l-2.46,1.951l-1.781-1.272l-3.563,2.884l0.849,2.036L139.13,159.596L139.13,159.596z
		 M150.75,142.887l-1.866-1.527l3.987-4.835c0.085,0.085,0.169,0.085,0.254,0.17s0.17,0.17,0.34,0.255
		c1.526,1.271,2.375,2.714,2.544,4.24c0.17,1.527-0.339,3.054-1.611,4.496c-0.594,0.764-1.272,1.272-1.951,1.696
		c-0.678,0.339-1.441,0.594-2.29,0.679c-0.764,0-1.526-0.085-2.29-0.34c-0.848-0.254-1.526-0.594-2.12-1.188
		c-0.679-0.509-1.188-1.188-1.612-1.865c-0.339-0.679-0.594-1.442-0.678-2.29c0-0.849,0.084-1.612,0.339-2.376
		c0.255-0.763,0.679-1.526,1.272-2.12c0.679-0.933,1.526-1.526,2.46-1.951c0.933-0.339,1.865-0.509,2.969-0.424l-0.764,2.969
		c-0.594,0-1.103,0.085-1.526,0.255c-0.425,0.169-0.764,0.424-1.104,0.848c-0.594,0.679-0.848,1.527-0.763,2.29
		c0.169,0.849,0.679,1.612,1.526,2.375c0.849,0.679,1.696,1.018,2.545,1.018c0.848,0,1.526-0.339,2.12-1.103
		c0.509-0.594,0.849-1.271,0.849-1.95c0.085-0.679-0.17-1.272-0.594-1.696L150.75,142.887L150.75,142.887z M150.071,131.774
		l1.612-2.799l4.919,2.884c0.679,0.424,1.272,0.679,1.612,0.849c0.339,0.169,0.593,0.254,0.848,0.254
		c0.34,0.085,0.679,0,0.934-0.169c0.254-0.255,0.509-0.51,0.763-0.849c0.17-0.424,0.34-0.764,0.34-1.103s-0.085-0.594-0.255-0.933
		c-0.17-0.17-0.424-0.425-0.679-0.595c-0.339-0.254-0.848-0.509-1.526-0.933l-0.679-0.424l-4.241-2.46l1.527-2.714l5.428,3.053
		c1.103,0.679,1.866,1.188,2.291,1.612c0.424,0.424,0.763,0.933,0.933,1.441c0.255,0.594,0.255,1.272,0.17,1.951
		c-0.17,0.764-0.51,1.526-1.019,2.375c-0.509,0.933-1.018,1.611-1.526,2.035c-0.594,0.51-1.188,0.849-1.781,0.934
		c-0.509,0.085-1.103,0.085-1.696-0.085c-0.679-0.17-1.527-0.594-2.63-1.272l-1.018-0.594L150.071,131.774L150.071,131.774z
		 M164.661,118.288l0.763-3.053l-3.986,0.169c-0.085,0-0.339,0-0.594,0c-0.254,0-0.594,0-1.018-0.085
		c0.254,0.17,0.509,0.34,0.764,0.425c0.169,0.169,0.424,0.254,0.594,0.424L164.661,118.288L164.661,118.288z M167.714,123.717
		l-10.263-6.87l1.018-3.902l12.384-0.848l-0.848,3.053h-2.206l-1.103,4.411l1.866,1.103L167.714,123.717L167.714,123.717z
		 M171.701,107.517l-5.344-0.509l-6.701,3.393l0.34-3.647l3.223-1.272c0,0,0,0,0.085,0c0.339-0.17,0.594-0.255,0.933-0.255
		c-0.254-0.084-0.594-0.254-0.848-0.424c-0.085-0.085-0.085-0.085-0.085-0.085l-2.884-1.866l0.424-3.646l5.853,4.749l5.344,0.51
		L171.701,107.517L171.701,107.517z"/>
</g>
</svg>
